HIERARCHY
ROOT Hips
{
  OFFSET 0 0 0
  CHANNELS 6 Xposition Yposition Zposition Zrotation Yrotation Xrotation
  JOINT LeftThigh
  {
    OFFSET 8.409438 0 -5.917753
    CHANNELS 3 Zrotation Yrotation Xrotation
    JOINT LeftLeg
    {
      OFFSET 0 0 -42.358652
      CHANNELS 3 Zrotation Yrotation Xrotation
      JOINT LeftFoot
      {
        OFFSET 0 0 -39.357303
        CHANNELS 3 Zrotation Yrotation Xrotation
      }
    }
  }
  JOINT RightThigh
  {
    OFFSET -8.409438 0 -5.917753
    CHANNELS 3 Zrotation Yrotation Xrotation
    JOINT RightLeg
    {
      OFFSET 0 0 -42.358652
      CHANNELS 3 Zrotation Yrotation Xrotation
      JOINT RightFoot
      {
        OFFSET 0 0 -39.357303
        CHANNELS 3 Zrotation Yrotation Xrotation
      }
    }
  }
  JOINT SpineLow
  {
    OFFSET 0 0 4.719101
    CHANNELS 3 Zrotation Yrotation Xrotation
    JOINT SpineMid
    {
      OFFSET 0 0 12.899191
      CHANNELS 3 Zrotation Yrotation Xrotation
      JOINT Chest
      {
        OFFSET 0 0 12.899191
        CHANNELS 3 Zrotation Yrotation Xrotation
        JOINT LeftShoulder
        {
          OFFSET 7.550562 1.41573 9.438202
          CHANNELS 3 Zrotation Yrotation Xrotation
          JOINT LeftArm
          {
            OFFSET 9.155056 0 4.247191
            CHANNELS 3 Zrotation Yrotation Xrotation
            JOINT LeftForearm
            {
              OFFSET 0 0 25.771955
              CHANNELS 3 Zrotation Yrotation Xrotation
              JOINT LeftHand
              {
                OFFSET 0 0 25.197169
                CHANNELS 3 Zrotation Yrotation Xrotation
              }
            }
          }
        }
        JOINT RightShoulder
        {
          OFFSET -7.550562 1.41573 9.438202
          CHANNELS 3 Zrotation Yrotation Xrotation
          JOINT RightArm
          {
            OFFSET -9.155056 0 4.247191
            CHANNELS 3 Zrotation Yrotation Xrotation
            JOINT RightForearm
            {
              OFFSET 0 0 -25.771955
              CHANNELS 3 Zrotation Yrotation Xrotation
              JOINT RightHand
              {
                OFFSET 0 0 -25.197169
                CHANNELS 3 Zrotation Yrotation Xrotation
              }
            }
          }
        }
        JOINT Neck
        {
          OFFSET 0 0 15.101124
          CHANNELS 3 Zrotation Yrotation Xrotation
          JOINT Head
          {
            OFFSET 0 0 11.325843
            CHANNELS 3 Zrotation Yrotation Xrotation
            End Site
            {
              OFFSET 0 0 14.157303
            }
          }
        }
      }
    }
  }
}
MOTION
Frames: 8
Frame Time: 0.0
0.0  101.685394  0.0  3.757946  51.141504  -93.784965  -0.63803  -19.997519  -6.004389  -23.905432  20.296437  16.186189  -2.407513  2.786316  1.942583  -26.260589  14.056109  2.406901  -14.408341  8.615017  19.381785  -5.982562  2.324285  -2.539012  -0.205942  -0.160426  2.911056  -0.581282  -0.413011  7.958477  -0.581282  -0.413011  7.958477  -20.534812  25.45558  -0.543785  112.728251  49.68346  170.058354  -31.45708  22.088545  85.555962  59.421018  -17.821642  -49.027739  25.790458  -6.488257  9.724472  134.242797  43.116305  36.859274  -34.973348  -20.572244  -103.428646  47.091193  1.666527  38.207456  -9.306448  -3.103216  -1.531085  -6.985958  -2.304752  -1.195663  
0.0  101.685394  0.0  4.173766  52.228676  -93.323799  -1.312668  -19.592479  -6.094053  -24.303551  20.274195  15.830628  -2.41762  2.744382  1.940926  -27.054612  14.317978  2.352954  -14.47791  8.725335  19.275151  -5.912818  2.180809  -2.597193  -0.176787  -0.127946  2.908472  -0.497801  -0.327906  7.950966  -0.497801  -0.327906  7.950966  -20.197529  25.423153  -0.679132  112.487757  49.674261  171.346829  -31.892126  22.052298  84.902694  60.085006  -17.699363  -49.566356  26.304486  -6.388662  9.876777  135.454662  42.958682  37.507438  -35.515423  -19.758844  -103.304804  46.012744  1.569006  37.29107  -9.912908  -3.297757  -1.542846  -7.441012  -2.44908  -1.210742  
0.0  101.685394  0.0  4.36058  52.828472  -93.156644  -1.736982  -19.366977  -6.040414  -24.309604  20.203232  15.757695  -2.488554  2.716768  1.917622  -27.430846  14.466073  2.425142  -14.560808  8.770359  19.171955  -5.7748  2.118212  -2.633362  -0.059525  -0.12834  2.902474  -0.177824  -0.343088  7.933999  -0.177824  -0.343088  7.933998  -20.085578  25.507418  -0.64615  112.777751  49.624177  172.865291  -32.097108  22.211585  84.459066  60.743737  -17.697902  -50.131386  26.519847  -6.291851  10.143314  136.228291  42.768675  37.83878  -36.017301  -18.997439  -103.115308  45.423923  1.403275  36.218203  -10.52216  -3.442843  -1.448393  -7.897458  -2.558116  -1.145718  
0.0  101.685394  0.0  4.713514  53.667923  -92.789053  -2.595375  -19.008941  -6.103246  -24.455698  20.183603  15.535247  -2.297404  2.732973  2.025026  -28.181154  14.749628  2.370366  -14.61679  8.826623  19.084095  -5.647667  2.031836  -2.67738  -0.005685  -0.091017  2.949219  -0.026602  -0.247669  8.061451  -0.026602  -0.247669  8.061451  -20.11802  25.266944  -0.928662  113.686654  49.430543  174.649628  -32.277086  22.357827  84.11526  61.298654  -17.731396  -50.562238  26.783712  -6.169367  9.947848  136.532395  42.578397  37.878502  -36.453862  -18.240789  -102.932065  45.515499  1.41119  35.695551  -11.161334  -3.657964  -1.532503  -8.377394  -2.716587  -1.216365  
0.0  101.685394  0.0  4.800893  54.036943  -92.745804  -3.047599  -18.875669  -5.967217  -24.293148  20.123799  15.544829  -2.349087  2.720639  1.997911  -28.524852  14.913358  2.45511  -14.611303  8.808103  19.008286  -5.511737  1.992215  -2.702564  0.080003  -0.081385  2.987907  0.208253  -0.231941  8.166896  0.208253  -0.231941  8.166896  -19.9622  25.119479  -1.025051  114.805819  49.141803  176.582384  -32.368483  22.491378  83.912805  61.787699  -17.729903  -50.87634  27.03458  -6.084548  9.904878  136.452932  42.373827  37.671555  -36.987205  -17.316453  -102.69927  46.279186  1.205446  35.848357  -11.556085  -3.814977  -1.519531  -8.673412  -2.83373  -1.211986  
0.0  101.685394  0.0  5.012962  54.612574  -92.520239  -4.052006  -18.498902  -6.194507  -23.884031  20.05202  15.834658  -2.244729  2.737163  2.045988  -29.217519  15.142327  2.370859  -14.575643  8.827826  18.971687  -5.397956  1.915126  -2.733296  0.023832  -0.002452  3.009577  0.064721  -0.009652  8.226375  0.064721  -0.009652  8.226375  -18.921041  24.614974  -1.000443  116.259344  48.591482  178.683541  -32.352955  22.49086  83.827979  62.163977  -17.691166  -51.019834  27.808098  -6.312552  9.766429  136.035467  42.244987  37.303901  -37.682443  -16.134988  -102.223051  46.974436  0.612463  35.892738  -11.703656  -4.022165  -1.422504  -8.783557  -2.99071  -1.14409  
0.0  101.685394  0.0  4.956498  54.684758  -92.627241  -4.345317  -18.459517  -5.982202  -23.695544  19.976022  15.859639  -2.282312  2.761163  2.022425  -29.458238  15.269164  2.414825  -14.515583  8.782502  18.954404  -5.199282  1.889038  -2.73607  0.089425  0.013588  3.055627  0.245702  0.025786  8.352289  0.245702  0.025786  8.352289  -18.615151  24.388054  -1.089293  117.772218  48.089175  -179.409874  -32.278227  22.411298  83.858634  62.523468  -17.634705  -51.037933  27.919006  -6.33784  9.695352  135.343133  42.260163  36.810909  -38.249522  -14.997787  -101.728323  46.972449  -0.066754  35.396025  -11.888675  -4.152784  -1.394493  -8.922135  -3.088875  -1.126844  
0.0  101.685394  0.0  5.093058  54.939586  -92.472087  -5.144889  -18.123086  -6.151696  -23.34214  19.868532  16.107134  -2.131563  2.834146  2.109257  -30.039039  15.451108  2.253448  -14.397384  8.834028  18.971676  -4.996842  1.80855  -2.737465  -0.010493  0.108138  3.114198  -0.014718  0.296371  8.512353  -0.014718  0.296371  8.512354  -17.665799  23.838192  -1.358105  119.40546  47.502308  -177.791375  -32.262438  22.23117  83.975002  62.792207  -17.558979  -50.829728  28.663982  -6.473998  9.354049  134.46213  42.469108  36.314887  -38.306477  -14.443164  -101.438714  46.748716  -0.58758  34.435423  -11.823599  -4.35225  -1.410791  -8.873541  -3.238362  -1.142453  
